<mxfile host="app.diagrams.net" agent="Mozilla/5.0 (Windows NT 10.0; Win64; x64) AppleWebKit/537.36 (KHTML, like Gecko) Chrome/131.0.0.0 Safari/537.36 Edg/131.0.0.0" version="24.8.4">
  <diagram name="Page-1" id="tBml3Go5ftd5ACWBpB0q">
    <mxGraphModel dx="1674" dy="784" grid="1" gridSize="10" guides="1" tooltips="1" connect="1" arrows="1" fold="1" page="1" pageScale="1" pageWidth="850" pageHeight="1100" math="0" shadow="0">
      <root>
        <mxCell id="0" />
        <mxCell id="1" parent="0" />
        <mxCell id="MvNgZtdEVJEj_2l_hqqT-20" value="&lt;font style=&quot;font-size: 18px;&quot;&gt;Checking button status&lt;/font&gt;" style="rounded=1;whiteSpace=wrap;html=1;fillColor=#7EA6E0;" vertex="1" parent="1">
          <mxGeometry x="80" y="240" width="200" height="80" as="geometry" />
        </mxCell>
        <mxCell id="MvNgZtdEVJEj_2l_hqqT-21" value="&lt;font style=&quot;font-size: 18px;&quot;&gt;Turn on the light source&lt;/font&gt;" style="rounded=1;whiteSpace=wrap;html=1;fillColor=#7EA6E0;" vertex="1" parent="1">
          <mxGeometry x="80" y="400" width="200" height="80" as="geometry" />
        </mxCell>
        <mxCell id="MvNgZtdEVJEj_2l_hqqT-22" value="&lt;font style=&quot;font-size: 18px;&quot;&gt;The wavelength is reflected by water&lt;/font&gt;" style="rounded=1;whiteSpace=wrap;html=1;fillColor=#7EA6E0;" vertex="1" parent="1">
          <mxGeometry x="80" y="560" width="200" height="80" as="geometry" />
        </mxCell>
        <mxCell id="MvNgZtdEVJEj_2l_hqqT-23" value="&lt;font style=&quot;font-size: 18px;&quot;&gt;Apply data preprocessing method&lt;/font&gt;" style="rounded=1;whiteSpace=wrap;html=1;fillColor=#7EA6E0;" vertex="1" parent="1">
          <mxGeometry x="360" y="240" width="200" height="80" as="geometry" />
        </mxCell>
        <mxCell id="MvNgZtdEVJEj_2l_hqqT-24" value="&lt;font style=&quot;font-size: 18px;&quot;&gt;Receive attenuated VIS and NIR wavelengths&lt;/font&gt;" style="rounded=1;whiteSpace=wrap;html=1;fillColor=#7EA6E0;" vertex="1" parent="1">
          <mxGeometry x="360" y="400" width="200" height="80" as="geometry" />
        </mxCell>
        <mxCell id="MvNgZtdEVJEj_2l_hqqT-25" value="&lt;font style=&quot;font-size: 18px;&quot;&gt;Input data to MCU via 12C interface&lt;/font&gt;" style="rounded=1;whiteSpace=wrap;html=1;fillColor=#7EA6E0;" vertex="1" parent="1">
          <mxGeometry x="360" y="560" width="200" height="80" as="geometry" />
        </mxCell>
        <mxCell id="MvNgZtdEVJEj_2l_hqqT-26" value="&lt;font style=&quot;font-size: 18px;&quot;&gt;Apply the most suitable machine learning model to the data&lt;/font&gt;" style="rounded=1;whiteSpace=wrap;html=1;fillColor=#7EA6E0;" vertex="1" parent="1">
          <mxGeometry x="640" y="240" width="200" height="80" as="geometry" />
        </mxCell>
        <mxCell id="MvNgZtdEVJEj_2l_hqqT-27" value="&lt;font style=&quot;font-size: 18px;&quot;&gt;Predict Haugh Unit value&lt;/font&gt;" style="rounded=1;whiteSpace=wrap;html=1;fillColor=#7EA6E0;" vertex="1" parent="1">
          <mxGeometry x="640" y="400" width="200" height="80" as="geometry" />
        </mxCell>
        <mxCell id="MvNgZtdEVJEj_2l_hqqT-28" value="&lt;div&gt;&lt;font style=&quot;font-size: 18px;&quot;&gt;Display on OLED screen&lt;/font&gt;&lt;/div&gt;" style="rounded=1;whiteSpace=wrap;html=1;fillColor=#7EA6E0;" vertex="1" parent="1">
          <mxGeometry x="640" y="560" width="200" height="80" as="geometry" />
        </mxCell>
        <mxCell id="MvNgZtdEVJEj_2l_hqqT-33" value="&lt;b&gt;&lt;font style=&quot;font-size: 18px;&quot;&gt;END&lt;/font&gt;&lt;/b&gt;" style="ellipse;whiteSpace=wrap;html=1;aspect=fixed;fillColor=#7EA6E0;" vertex="1" parent="1">
          <mxGeometry x="690" y="720" width="110" height="110" as="geometry" />
        </mxCell>
        <mxCell id="MvNgZtdEVJEj_2l_hqqT-34" value="&lt;b&gt;&lt;font style=&quot;font-size: 18px;&quot;&gt;START&lt;/font&gt;&lt;/b&gt;" style="ellipse;whiteSpace=wrap;html=1;aspect=fixed;fillColor=#7EA6E0;" vertex="1" parent="1">
          <mxGeometry x="125" y="50" width="110" height="110" as="geometry" />
        </mxCell>
        <mxCell id="MvNgZtdEVJEj_2l_hqqT-35" value="" style="shape=flexArrow;endArrow=classic;html=1;rounded=0;" edge="1" parent="1">
          <mxGeometry width="50" height="50" relative="1" as="geometry">
            <mxPoint x="179.5" y="170" as="sourcePoint" />
            <mxPoint x="180" y="230" as="targetPoint" />
          </mxGeometry>
        </mxCell>
        <mxCell id="MvNgZtdEVJEj_2l_hqqT-37" value="" style="shape=flexArrow;endArrow=classic;html=1;rounded=0;" edge="1" parent="1">
          <mxGeometry width="50" height="50" relative="1" as="geometry">
            <mxPoint x="179.5" y="330" as="sourcePoint" />
            <mxPoint x="180" y="390" as="targetPoint" />
          </mxGeometry>
        </mxCell>
        <mxCell id="MvNgZtdEVJEj_2l_hqqT-38" value="" style="shape=flexArrow;endArrow=classic;html=1;rounded=0;" edge="1" parent="1">
          <mxGeometry width="50" height="50" relative="1" as="geometry">
            <mxPoint x="179.5" y="490" as="sourcePoint" />
            <mxPoint x="180" y="550" as="targetPoint" />
          </mxGeometry>
        </mxCell>
        <mxCell id="MvNgZtdEVJEj_2l_hqqT-39" value="" style="shape=flexArrow;endArrow=classic;html=1;rounded=0;" edge="1" parent="1">
          <mxGeometry width="50" height="50" relative="1" as="geometry">
            <mxPoint x="739.5" y="330" as="sourcePoint" />
            <mxPoint x="740" y="390" as="targetPoint" />
          </mxGeometry>
        </mxCell>
        <mxCell id="MvNgZtdEVJEj_2l_hqqT-40" value="" style="shape=flexArrow;endArrow=classic;html=1;rounded=0;" edge="1" parent="1">
          <mxGeometry width="50" height="50" relative="1" as="geometry">
            <mxPoint x="739.5" y="490" as="sourcePoint" />
            <mxPoint x="740" y="550" as="targetPoint" />
          </mxGeometry>
        </mxCell>
        <mxCell id="MvNgZtdEVJEj_2l_hqqT-41" value="" style="shape=flexArrow;endArrow=classic;html=1;rounded=0;" edge="1" parent="1">
          <mxGeometry width="50" height="50" relative="1" as="geometry">
            <mxPoint x="744.5" y="650" as="sourcePoint" />
            <mxPoint x="745" y="710" as="targetPoint" />
          </mxGeometry>
        </mxCell>
        <mxCell id="MvNgZtdEVJEj_2l_hqqT-44" value="" style="shape=flexArrow;endArrow=classic;html=1;rounded=0;" edge="1" parent="1">
          <mxGeometry width="50" height="50" relative="1" as="geometry">
            <mxPoint x="460" y="550" as="sourcePoint" />
            <mxPoint x="459.5" y="490" as="targetPoint" />
          </mxGeometry>
        </mxCell>
        <mxCell id="MvNgZtdEVJEj_2l_hqqT-45" value="" style="shape=flexArrow;endArrow=classic;html=1;rounded=0;" edge="1" parent="1">
          <mxGeometry width="50" height="50" relative="1" as="geometry">
            <mxPoint x="450" y="390" as="sourcePoint" />
            <mxPoint x="450" y="330" as="targetPoint" />
          </mxGeometry>
        </mxCell>
        <mxCell id="MvNgZtdEVJEj_2l_hqqT-46" value="" style="shape=flexArrow;endArrow=classic;html=1;rounded=0;" edge="1" parent="1">
          <mxGeometry width="50" height="50" relative="1" as="geometry">
            <mxPoint x="290" y="600" as="sourcePoint" />
            <mxPoint x="350" y="600" as="targetPoint" />
          </mxGeometry>
        </mxCell>
        <mxCell id="MvNgZtdEVJEj_2l_hqqT-47" value="" style="shape=flexArrow;endArrow=classic;html=1;rounded=0;" edge="1" parent="1">
          <mxGeometry width="50" height="50" relative="1" as="geometry">
            <mxPoint x="570" y="279.5" as="sourcePoint" />
            <mxPoint x="630" y="279.5" as="targetPoint" />
          </mxGeometry>
        </mxCell>
      </root>
    </mxGraphModel>
  </diagram>
</mxfile>
